<?xml version="1.0" encoding="utf-8"?>
<!-- Generator: Adobe Illustrator 21.0.0, SVG Export Plug-In . SVG Version: 6.00 Build 0)  -->
<svg version="1.1" id="图层_1" xmlns="http://www.w3.org/2000/svg" xmlns:xlink="http://www.w3.org/1999/xlink" x="0px" y="0px"
	 viewBox="0 0 14.132 11.978" style="enable-background:new 0 0 14.132 11.978;" xml:space="preserve">
<style type="text/css">
	.st0{fill-rule:evenodd;clip-rule:evenodd;fill:#FFFFFF;}
</style>
<g>
	<g>
		<path class="st0" d="M14.033,5.634c-0.047-0.157-0.118-0.307-0.242-0.431L8.886,0.298c-0.397-0.397-1.04-0.397-1.436,0
			c-0.397,0.397-0.397,1.04,0,1.436l3.238,3.238H1.016C0.455,4.972,0,5.427,0,5.988s0.455,1.016,1.016,1.016h9.709l-3.236,3.236
			c-0.398,0.398-0.398,1.042,0,1.44c0.398,0.398,1.042,0.398,1.44,0l4.905-4.905C14.143,6.465,14.204,6.009,14.033,5.634z"/>
	</g>
</g>
</svg>
