<?xml version="1.0" encoding="UTF-8" standalone="no"?>
<!DOCTYPE svg PUBLIC "-//W3C//DTD SVG 1.1//EN" "http://www.w3.org/Graphics/SVG/1.1/DTD/svg11.dtd">
<svg width="100%" height="100%" viewBox="0 0 1080 240" version="1.1" xmlns="http://www.w3.org/2000/svg" xmlns:xlink="http://www.w3.org/1999/xlink" xml:space="preserve" xmlns:serif="http://www.serif.com/" style="fill-rule:evenodd;clip-rule:evenodd;stroke-linejoin:round;stroke-miterlimit:2;">
    <g id="recreate" transform="matrix(1,0,0,1,-740,-420)">
        <path d="M1129.25,593.036C1114.25,596.838 1099.64,598.736 1085.44,598.736C1069.64,598.736 1059.19,596.988 1054.1,593.486C1049,589.989 1046.44,582.939 1046.44,572.336L1046.44,512.936C1046.44,501.339 1048.69,493.736 1053.19,490.136C1057.69,486.536 1067.44,484.736 1082.44,484.736C1096.64,484.736 1111.55,486.738 1127.14,490.736L1127.14,470.936C1113.35,467.936 1099.55,466.436 1085.75,466.436C1078.14,466.436 1072.1,466.586 1067.6,466.886C1063.1,467.186 1057.89,467.786 1052,468.686C1046.09,469.586 1041.44,471.138 1038.05,473.336C1034.64,475.539 1031.34,478.436 1028.14,482.036C1024.94,485.636 1022.6,490.338 1021.1,496.136C1019.6,501.939 1018.85,508.839 1018.85,516.836L1018.85,570.236C1018.85,579.236 1020.05,586.788 1022.45,592.886C1024.85,598.989 1027.69,603.639 1031,606.836C1034.3,610.038 1039.1,612.489 1045.39,614.186C1051.69,615.883 1057.29,616.886 1062.19,617.186C1067.09,617.486 1073.94,617.636 1082.75,617.636C1100.54,617.636 1116.05,616.235 1129.25,613.436L1129.25,593.036ZM1515.79,512.036C1515.79,493.436 1512.19,481.188 1504.99,475.286C1497.79,469.389 1481.99,466.436 1457.59,466.436C1441.59,466.436 1423.69,467.336 1403.89,469.136L1403.89,488.936C1422.29,486.536 1438.89,485.336 1453.69,485.336C1467.29,485.336 1476.54,486.738 1481.44,489.536C1486.34,492.339 1488.79,497.739 1488.79,505.736L1488.79,528.836L1445.29,528.836C1424.69,528.836 1410.79,531.888 1403.59,537.986C1396.39,544.089 1392.79,555.236 1392.79,571.436C1392.79,590.036 1396.64,602.388 1404.34,608.486C1412.04,614.589 1425.89,617.636 1445.89,617.636C1472.89,617.636 1487.49,612.039 1489.69,600.836L1489.69,614.636L1515.79,614.636L1515.79,512.036ZM991.365,515.936C991.365,497.538 986.514,484.689 976.815,477.386C967.112,470.088 951.765,466.436 930.765,466.436C908.364,466.436 892.065,470.238 881.865,477.836C871.665,485.439 866.565,498.138 866.565,515.936L866.565,573.236C866.565,602.838 888.765,617.636 933.165,617.636C950.162,617.636 967.665,615.634 985.665,611.636L985.665,590.936C966.864,595.736 950.565,598.136 936.765,598.136C922.562,598.136 911.865,595.989 904.665,591.686C897.465,587.388 893.865,580.136 893.865,569.936L893.865,548.036L991.365,548.036L991.365,515.936ZM1368.32,515.936C1368.32,497.538 1363.46,484.689 1353.77,477.386C1344.06,470.088 1328.71,466.436 1307.71,466.436C1285.31,466.436 1269.02,470.238 1258.82,477.836C1248.62,485.439 1243.52,498.138 1243.52,515.936L1243.52,573.236C1243.52,602.838 1265.71,617.636 1310.12,617.636C1327.11,617.636 1344.62,615.634 1362.62,611.636L1362.62,590.936C1343.81,595.736 1327.52,598.136 1313.71,598.136C1299.51,598.136 1288.82,595.989 1281.62,591.686C1274.41,587.388 1270.82,580.136 1270.82,569.936L1270.82,548.036L1368.32,548.036L1368.32,515.936ZM1785.21,515.936C1785.21,497.538 1780.36,484.689 1770.66,477.386C1760.96,470.088 1745.61,466.436 1724.61,466.436C1702.21,466.436 1685.91,470.238 1675.71,477.836C1665.51,485.439 1660.41,498.138 1660.41,515.936L1660.41,573.236C1660.41,602.838 1682.61,617.636 1727.01,617.636C1744.01,617.636 1761.51,615.634 1779.51,611.636L1779.51,590.936C1760.71,595.736 1744.41,598.136 1730.61,598.136C1716.41,598.136 1705.71,595.989 1698.51,591.686C1691.31,587.388 1687.71,580.136 1687.71,569.936L1687.71,548.036L1785.21,548.036L1785.21,515.936ZM1644.67,597.536C1633.47,599.139 1626.27,599.936 1623.07,599.936C1610.87,599.936 1602.77,598.188 1598.77,594.686C1594.77,591.189 1592.77,584.238 1592.77,573.836L1592.77,487.136L1644.67,487.136L1644.67,469.436L1592.77,469.436L1592.77,424.436L1565.47,424.436L1565.47,469.436L1533.07,469.436L1533.07,487.136L1565.47,487.136L1565.47,572.336C1565.47,589.938 1569.07,601.886 1576.27,608.186C1583.47,614.486 1596.17,617.636 1614.37,617.636C1624.97,617.636 1635.07,616.834 1644.67,615.236L1644.67,597.536ZM855.05,466.436L841.85,466.436C832.85,466.436 824,469.136 815.3,474.536C806.6,479.936 802.25,486.138 802.25,493.136L802.25,469.436L776.75,469.436L776.75,614.636L803.75,614.636L803.75,512.336C803.75,503.538 806.698,497.538 812.6,494.336C818.497,491.139 827.647,489.536 840.05,489.536L855.05,489.536L855.05,466.436ZM1232,466.436L1218.8,466.436C1209.8,466.436 1200.95,469.136 1192.25,474.536C1183.55,479.936 1179.2,486.138 1179.2,493.136L1179.2,469.436L1153.7,469.436L1153.7,614.636L1180.7,614.636L1180.7,512.336C1180.7,503.538 1183.65,497.538 1189.55,494.336C1195.45,491.139 1204.6,489.536 1217,489.536L1232,489.536L1232,466.436ZM1485.34,593.486C1483.04,595.586 1479.69,597.086 1475.29,597.986C1470.89,598.886 1466.94,599.439 1463.44,599.636C1459.94,599.838 1455.59,599.936 1450.39,599.936L1444.99,599.936C1434.39,599.936 1427.44,597.888 1424.14,593.786C1420.84,589.689 1419.19,582.536 1419.19,572.336C1419.19,560.936 1420.74,553.638 1423.84,550.436C1426.94,547.239 1434.69,545.636 1447.09,545.636L1488.79,545.636L1488.79,585.236C1488.79,588.639 1487.64,591.386 1485.34,593.486ZM893.865,530.336L893.865,507.536C893.865,498.536 896.762,492.438 902.565,489.236C908.364,486.039 917.265,484.436 929.265,484.436C941.865,484.436 950.865,486.086 956.265,489.386C961.665,492.686 964.365,498.738 964.365,507.536L964.365,530.336L893.865,530.336ZM1270.82,530.336L1270.82,507.536C1270.82,498.536 1273.71,492.438 1279.52,489.236C1285.31,486.039 1294.21,484.436 1306.21,484.436C1318.82,484.436 1327.82,486.086 1333.21,489.386C1338.62,492.686 1341.32,498.738 1341.32,507.536L1341.32,530.336L1270.82,530.336ZM1687.71,530.336L1687.71,507.536C1687.71,498.536 1690.61,492.438 1696.41,489.236C1702.21,486.039 1711.11,484.436 1723.11,484.436C1735.71,484.436 1744.71,486.086 1750.11,489.386C1755.51,492.686 1758.21,498.738 1758.21,507.536L1758.21,530.336L1687.71,530.336Z" style="fill:white;"/>
    </g>
</svg>
